# xmcd
#
# Track frame offsets: 
#        150
#        20370
#        37915
#        57092
#        82050
#        103082
#        125745
#        139815
#        169822
#
# Disc length: 2594 seconds
#
# Revision: 0
# Processed by: cddbd v1.5.2PL0 Copyright (c) Steve Scherf et al.
# Submitted via: ExactAudioCopy v0.95a5
#
DISCID=760a2009
DTITLE=Stefan Diestelmann and Roykey Wydh - Auf einWort noch
DYEAR=1990
DGENRE=Blues
TTITLE0=Erste Begegnung
TTITLE1=Rhizom
TTITLE2=Liebeslied
TTITLE3=Blues Reines Deutschland
TTITLE4=Zwiegespräch
TTITLE5=Kneipenleben
TTITLE6=Zukunft die wir nicht brauchen
TTITLE7=Two Cat Blues
TTITLE8=Auf ein Wort noch
EXTD=
EXTT0=
EXTT1=
EXTT2=
EXTT3=
EXTT4=
EXTT5=
EXTT6=
EXTT7=
EXTT8=
PLAYORDER=
